# xmcd
#
# Track frame offsets:
#	150
#	13212
#	22825
#	32252
#	43170
#	52867
#	63747
#	74307
#	87445
#
# Disc length: 1319 seconds
#
# Revision: 1
# Processed by: cddbd v1.4PL0 Copyright (c) Steve Scherf et al.
# Submitted via: audiograbber 1.80
#
DISCID=6e052509
DTITLE=Chet Atkins - Nashville Gold
DYEAR=1900
DGENRE=
TTITLE0=La Fiesta
TTITLE1=Down Home
TTITLE2=I Love How You Love Me
TTITLE3=I Got A Woman
TTITLE4=Whispering
TTITLE5=Alley Cat
TTITLE6=Arkansaw Traveler
TTITLE7=Spanish Harlem
TTITLE8=Django's Castle
EXTD=
EXTT0=
EXTT1=
EXTT2=
EXTT3=
EXTT4=
EXTT5=
EXTT6=
EXTT7=
EXTT8=
PLAYORDER=
